<svg id="Layer_1" data-name="Layer 1" xmlns="http://www.w3.org/2000/svg" viewBox="0 0 222 222"><defs><style>.cls-1{fill:#ee3124;}</style></defs><title>NAD_Full_Colour</title><polygon class="cls-1" points="111.03 27 101.68 59 120.28 59 111.23 27 111.03 27"/><path class="cls-1" d="M550.44,191H536v53h14.63c12.4,0,16.57-13.91,16.57-27.17C567.2,193,556.94,191,550.44,191Z" transform="translate(-369 -169)"/><path class="cls-1" d="M369,169V391H591V169Zm70,89H424.12l-29.78-57H394v57H380V178h16l29,56H425V178h14Zm59.22,0-4.68-16H466.62l-5.08,16H445.48l26-80h17.58l25.71,80Zm54.24,0H521V178h32.07c24.59,0,29.67,22.8,29.67,38.09C582.75,233.4,576.55,258,552.47,258Z" transform="translate(-369 -169)"/></svg>